:FULLY-SPECIFIED
:FORCE-ALL-JOINTS-BE-3DOF
:DEGREES
340
root 8.23411 16.0566 -20.5355 11.0233 24.8125 4.30595
lfemur -8.30655 15.5461 -10.1942
ltibia 38.7992 0 0
lfoot 6.64409 30.5425 0
ltoes -34.7646 0 0
rfemur -48.6498 -14.1264 9.62442
rtibia 55.4546 0 0
rfoot 3.45197 -19.0228 0
rtoes 1.42646 0 0
lowerback -0.884613 -1.74969 -1.52333
upperback 1.7947 -2.31051 -0.132368
thorax 2.39227 -1.17753 0.653329
lowerneck -5.60538 -8.91293 -0.399027
upperneck -2.25284 -11.8665 6.70162
head 0.683903 -5.87646 1.85838
lclavicle -4.74702e-14 3.1039e-15 0
lhumerus -48.645 -35.4952 110.191
lradius 57.3854 0 0
lwrist 20.4421 0 0
lhand 6.82385 12.4179 0
lfingers 7.12502 0 0
lthumb 32.1055 39.5811 0
rclavicle -4.74702e-14 3.1039e-15 0
rhumerus -21.8751 18.6602 -73.1938
rradius 85.0842 0 0
rwrist 1.90465 0 0
rhand -3.72573 -11.3508 0
rfingers 7.12502 0 0
rthumb 22.0178 -760.281 0
341
root 8.1612 16.0936 -20.3009 10.925 22.6386 3.60145
lfemur -7.69834 14.1195 -9.39265
ltibia 39.13 0 0
lfoot 9.30997 30.39 0
ltoes -32.0636 0 0
rfemur -48.715 -15.2137 11.9703
rtibia 55.3394 0 0
rfoot 2.26715 -17.887 0
rtoes -4.2519 0 0
lowerback -1.3818 -1.7151 -1.27466
upperback 1.62422 -2.26223 0.0290873
thorax 2.49168 -1.15085 0.665779
lowerneck -5.85086 -8.50258 -0.539069
upperneck -1.82107 -11.3386 6.61159
head 0.847218 -5.59814 1.84349
lclavicle -4.69295e-14 5.79048e-15 0
lhumerus -48.478 -33.6976 109.628
lradius 57.04 0 0
lwrist 21.2711 0 0
lhand 5.82251 12.1656 0
lfingers 7.12502 0 0
lthumb 31.1531 39.5287 0
rclavicle -4.69295e-14 5.79048e-15 0
rhumerus -23.7377 18.1878 -75.653
rradius 85.1193 0 0
rwrist 1.71973 0 0
rhand -2.64124 -12.2683 0
rfingers 7.12502 0 0
rthumb 23.0616 -761.058 0
342
root 8.08257 16.1287 -20.0733 10.7424 20.5513 2.95088
lfemur -7.30604 13.0249 -8.61042
ltibia 39.9479 0 0
lfoot 11.2668 29.7453 0
ltoes -28.9607 0 0
rfemur -48.3957 -16.0535 13.9352
rtibia 55.0372 0 0
rfoot 0.992131 -16.7125 0
rtoes -7.8301 0 0
lowerback -1.6875 -1.66294 -1.06132
upperback 1.51176 -2.19113 0.189779
thorax 2.54362 -1.11354 0.703334
lowerneck -6.05749 -8.12491 -0.639183
upperneck -1.42004 -10.8528 6.48417
head 0.991996 -5.34355 1.81432
lclavicle -4.48259e-14 7.95139e-15 0
lhumerus -48.2894 -32.1888 109.13
lradius 56.7657 0 0
lwrist 21.7113 0 0
lhand 4.87827 11.9278 0
lfingers 7.12502 0 0
lthumb 30.2539 39.4688 0
rclavicle -4.48259e-14 7.95139e-15 0
rhumerus -25.468 17.623 -77.8089
rradius 84.9958 0 0
rwrist 1.83289 0 0
rhand -3.14231 -13.9058 0
rfingers 7.12502 0 0
rthumb 22.5774 -762.606 0
343
root 8.07168 16.1331 -20.0447 10.7069 20.2923 2.87258
lfemur -7.27182 12.9144 -8.5074
ltibia 40.1096 0 0
lfoot 11.445 29.5979 0
ltoes -28.4782 0 0
rfemur -48.3095 -16.1394 14.1498
rtibia 54.9759 0 0
rfoot 0.812776 -16.549 0
rtoes -8.05199 0 0
lowerback -1.70467 -1.6542 -1.03823
upperback 1.50413 -2.17943 0.210627
thorax 2.54494 -1.10755 0.71154
lowerneck -6.07961 -8.08016 -0.647955
upperneck -1.36999 -10.7953 6.46333
head 1.00911 -5.31356 1.80893
lclavicle -4.43456e-14 8.1877e-15 0
lhumerus -48.2633 -32.0278 109.075
lradius 56.7366 0 0
lwrist 21.7206 0 0
lhand 4.76546 11.8995 0
lfingers 7.12502 0 0
lthumb 30.1464 39.4608 0
rclavicle -4.43456e-14 8.1877e-15 0
rhumerus -25.6803 17.5342 -78.0572
rradius 84.9624 0 0
rwrist 1.88207 0 0
rhand -3.42524 -14.2263 0
rfingers 7.12502 0 0
rthumb 22.3045 -762.921 0
344
root 8.03995 16.1453 -19.965 10.5883 19.5767 2.65677
lfemur -7.17282 12.6133 -8.20427
ltibia 40.6274 0 0
lfoot 11.8843 29.0695 0
ltoes -26.8814 0 0
rfemur -48.0243 -16.3792 14.7415
rtibia 54.7802 0 0
rfoot 0.278205 -16.0411 0
rtoes -8.4627 0 0
lowerback -1.72567 -1.62684 -0.979612
upperback 1.49107 -2.14334 0.268704
thorax 2.54204 -1.08918 0.738554
lowerneck -6.1372 -7.95869 -0.668609
upperneck -1.2272 -10.6391 6.40101
head 1.05687 -5.23229 1.79242
lclavicle -4.2722e-14 8.8719e-15 0
lhumerus -48.1903 -31.6131 108.929
lradius 56.6565 0 0
lwrist 21.6944 0 0
lhand 4.46311 11.8217 0
lfingers 7.12502 0 0
lthumb 29.8581 39.4371 0
rclavicle -4.2722e-14 8.8719e-15 0
rhumerus -26.2749 17.2447 -78.742
rradius 84.8465 0 0
rwrist 2.03785 0 0
rhand -4.54554 -15.3173 0
rfingers 7.12502 0 0
rthumb 21.2242 -764.001 0
345
root 7.98911 16.164 -19.8433 10.3754 18.4909 2.3307
lfemur -7.02204 12.169 -7.71643
ltibia 41.5337 0 0
lfoot 12.4547 28.0657 0
ltoes -24.034 0 0
rfemur -47.5137 -16.7425 15.6351
rtibia 54.4398 0 0
rfoot -0.595758 -15.1794 0
rtoes -8.74526 0 0
lowerback -1.71257 -1.57977 -0.899265
upperback 1.48473 -2.08206 0.357334
thorax 2.52634 -1.05813 0.78643
lowerneck -6.21873 -7.77781 -0.693425
upperneck -1.00453 -10.4064 6.29861
head 1.12962 -5.11155 1.76461
lclavicle -3.97818e-14 9.95056e-15 0
lhumerus -48.0776 -31.0348 108.721
lradius 56.5368 0 0
lwrist 21.5694 0 0
lhand 4.0181 11.7037 0
lfingers 7.12502 0 0
lthumb 29.4336 39.3976 0
rclavicle -3.97818e-14 9.95056e-15 0
rhumerus -27.1871 16.734 -79.7753
rradius 84.629 0 0
rwrist 2.30557 0 0
rhand -6.79046 -17.2999 0
rfingers 7.12502 0 0
rthumb 19.0594 -765.975 0
346
root 7.92127 16.188 -19.6882 10.0666 17.1137 1.9197
lfemur -6.84251 11.6315 -7.06802
ltibia 42.8388 0 0
lfoot 13.0437 26.5383 0
ltoes -19.9166 0 0
rfemur -46.7684 -17.1953 16.7592
rtibia 53.9537 0 0
rfoot -1.77919 -13.9772 0
rtoes -8.66998 0 0
lowerback -1.63789 -1.51276 -0.808005
upperback 1.49386 -1.99567 0.46988
thorax 2.49157 -1.01451 0.855166
lowerneck -6.31478 -7.55242 -0.715721
upperneck -0.717209 -10.1164 6.15901
head 1.2214 -4.96149 1.72583
lclavicle -3.54861e-14 1.13485e-14 0
lhumerus -47.9314 -30.3667 108.469
lradius 56.39 0 0
lwrist 21.3062 0 0
lhand 3.46768 11.5526 0
lfingers 7.12502 0 0
lthumb 28.9084 39.3419 0
rclavicle -3.54861e-14 1.13485e-14 0
rhumerus -28.3507 16.0005 -81.0723
rradius 84.2973 0 0
rwrist 2.68116 0 0
rhand -10.2873 -20.1985 0
rfingers 7.12502 0 0
rthumb 15.6876 -768.874 0
347
root 7.83894 16.2158 -19.5077 9.66905 15.516 1.44719
lfemur -6.66728 11.0535 -6.29186
ltibia 44.5308 0 0
lfoot 13.5562 24.4861 0
ltoes -14.6268 0 0
rfemur -45.7967 -17.6995 18.0463
rtibia 53.3305 0 0
rfoot -3.22805 -12.47 0
rtoes -8.0945 0 0
lowerback -1.48463 -1.42646 -0.713694
upperback 1.52372 -1.88514 0.599738
thorax 2.43376 -0.958862 0.94271
lowerneck -6.41809 -7.29497 -0.729849
upperneck -0.382842 -9.78501 5.98659
head 1.32595 -4.7906 1.67689
lclavicle -2.99303e-14 1.29687e-14 0
lhumerus -47.7566 -29.6658 108.188
lradius 56.2294 0 0
lwrist 20.8893 0 0
lhand 2.83944 11.3734 0
lfingers 7.12502 0 0
lthumb 28.3085 39.2686 0
rclavicle -2.99303e-14 1.29687e-14 0
rhumerus -29.6975 15.0609 -82.5509
rradius 83.8451 0 0
rwrist 3.15122 0 0
rhand -15.0034 -23.9405 0
rfingers 7.12502 0 0
rthumb 11.1403 -772.629 0
348
root 7.74501 16.2463 -19.3095 9.1995 13.761 0.934715
lfemur -6.53943 10.4903 -5.42953
ltibia 46.5755 0 0
lfoot 13.9145 21.954 0
ltoes -8.37897 0 0
rfemur -44.624 -18.2128 19.4326
rtibia 52.5883 0 0
rfoot -4.88422 -10.716 0
rtoes -6.96376 0 0
lowerback -1.2462 -1.32235 -0.621231
upperback 1.57618 -1.75232 0.740342
thorax 2.35123 -0.892124 1.04495
lowerneck -6.52351 -7.0155 -0.731194
upperneck -0.0214275 -9.42489 5.78721
head 1.43665 -4.60569 1.61908
lclavicle -2.3344e-14 1.46924e-14 0
lhumerus -47.5573 -28.9728 107.885
lradius 56.0698 0 0
lwrist 20.3271 0 0
lhand 2.15133 11.1691 0
lfingers 7.12502 0 0
lthumb 27.6511 39.176 0
rclavicle -2.3344e-14 1.46924e-14 0
rhumerus -31.1576 13.9509 -84.1325
rradius 83.2726 0 0
rwrist 3.69294 0 0
rhand -20.7459 -28.3563 0
rfingers 7.12502 0 0
rthumb 5.6034 -777.073 0
349
root 7.64276 16.2781 -19.1007 8.68382 11.9041 0.4019
lfemur -6.51207 10 -4.53128
ltibia 48.9167 0 0
lfoot 14.0584 19.0337 0
ltoes -1.50458 0 0
rfemur -43.2933 -18.689 20.8585
rtibia 51.7549 0 0
rfoot -6.67544 -8.79603 0
rtoes -5.30999 0 0
lowerback -0.926523 -1.20282 -0.532553
upperback 1.64965 -1.59995 0.885161
thorax 2.2446 -0.815657 1.15573
lowerneck -6.62804 -6.72161 -0.71618
upperneck 0.344659 -9.0457 5.56823
head 1.54661 -4.41194 1.55419
lclavicle -1.60912e-14 1.63791e-14 0
lhumerus -47.3361 -28.3119 107.559
lradius 55.9264 0 0
lwrist 19.6517 0 0
lhand 1.41164 10.9405 0
lfingers 7.12502 0 0
lthumb 26.9437 39.0616 0
rclavicle -1.60912e-14 1.63791e-14 0
rhumerus -32.6597 12.725 -85.7411
rradius 82.5864 0 0
rwrist 4.27416 0 0
rhand -27.1624 -33.1792 0
rfingers 7.12502 0 0
rthumb -0.583081 -781.94 0
350
root 7.53587 16.31 -18.8879 8.15714 9.99303 -0.133525
lfemur -6.64832 9.64319 -3.65611
ltibia 51.476 0 0
lfoot 13.9448 15.8632 0
ltoes 5.54806 0 0
rfemur -41.865 -19.0782 22.2679
rtibia 50.8672 0 0
rfoot -8.51538 -6.81317 0
rtoes -3.25273 0 0
lowerback -0.53993 -1.07107 -0.446635
upperback 1.73911 -1.43164 1.0277
thorax 2.1168 -0.731234 1.26683
lowerneck -6.73079 -6.41844 -0.682262
upperneck 0.690658 -8.65391 5.33849
head 1.64858 -4.21283 1.4845
lclavicle -8.67023e-15 1.78665e-14 0
lhumerus -47.0948 -27.6906 107.205
lradius 55.8159 0 0
lwrist 18.9195 0 0
lhand 0.619026 10.6863 0
lfingers 7.12502 0 0
lthumb 26.185 38.9225 0
rclavicle -8.67023e-15 1.78665e-14 0
rhumerus -34.1304 11.4561 -87.3041
rradius 81.7993 0 0
rwrist 4.85331 0 0
rhand -33.74 -38.0458 0
rfingers 7.12502 0 0
rthumb -6.92478 -786.864 0
351
root 7.42841 16.3407 -18.6774 7.66386 8.06767 -0.655733
lfemur -7.02134 9.48311 -2.87173
ltibia 54.1529 0 0
lfoot 13.5485 12.6271 0
ltoes 12.2137 0 0
rfemur -40.4166 -19.326 23.6088
rtibia 49.972 0 0
rfoot -10.3036 -4.89315 0
rtoes -0.99881 0 0
lowerback -0.111231 -0.931194 -0.359491
upperback 1.83609 -1.25192 1.1615
thorax 1.97306 -0.641044 1.36797
lowerneck -6.83303 -6.10874 -0.627933
upperneck 0.989429 -8.25282 5.10831
head 1.73501 -4.0102 1.41276
lclavicle -1.71377e-15 1.89704e-14 0
lhumerus -46.8341 -27.1001 106.81
lradius 55.7557 0 0
lwrist 18.2102 0 0
lhand -0.237509 10.4032 0
lfingers 7.12502 0 0
lthumb 25.3643 38.755 0
rclavicle -1.71377e-15 1.89704e-14 0
rhumerus -35.4948 10.2362 -88.7517
rradius 80.9308 0 0
rwrist 5.37948 0 0
rhand -39.8061 -42.4956 0
rfingers 7.12502 0 0
rthumb -12.7731 -791.382 0
352
root 7.32484 16.369 -18.4748 7.2576 6.16023 -1.1508
lfemur -7.71429 9.58569 -2.25455
ltibia 56.8244 0 0
lfoot 12.8614 9.55663 0
ltoes 17.8101 0 0
rfemur -39.0433 -19.3743 24.833
rtibia 49.1254 0 0
rfoot -11.9255 -3.18417 0
rtoes 1.15761 0 0
lowerback 0.324313 -0.788145 -0.264172
upperback 1.9287 -1.06616 1.28014
thorax 1.82089 -0.547687 1.44685
lowerneck -6.93814 -5.79279 -0.55272
upperneck 1.21145 -7.84258 4.88952
head 1.79803 -3.80423 1.34224
lclavicle 4.01124e-15 1.9485e-14 0
lhumerus -46.5533 -26.5151 106.356
lradius 55.7644 0 0
lwrist 17.628 0 0
lhand -1.17861 10.0856 0
lfingers 7.12502 0 0
lthumb 24.4618 38.5549 0
rclavicle 4.01124e-15 1.9485e-14 0
rhumerus -36.6762 9.17572 -90.0173
rradius 80.0065 0 0
rwrist 5.79236 0 0
rhand -44.5282 -45.9711 0
rfingers 7.12502 0 0
rthumb -17.3252 -794.93 0
353
root 7.23 16.3936 -18.2854 7.00125 4.29515 -1.60669
lfemur -8.8204 10.0195 -1.8897
ltibia 59.3457 0 0
lfoot 11.8928 6.92932 0
ltoes 21.5383 0 0
rfemur -37.8576 -19.161 25.8961
rtibia 48.393 0 0
rfoot -13.2525 -1.85696 0
rtoes 2.8351 0 0
lowerback 0.720986 -0.647731 -0.150769
upperback 2.0016 -0.880658 1.37724
thorax 1.67012 -0.454181 1.48907
lowerneck -7.05165 -5.46847 -0.457184
upperneck 1.32481 -7.42019 4.6954
head 1.82946 -3.59342 1.27666
lclavicle 7.60351e-15 1.91827e-14 0
lhumerus -46.251 -25.8935 105.816
lradius 55.8616 0 0
lwrist 17.3004 0 0
lhand -2.23456 9.72614 0
lfingers 7.12502 0 0
lthumb 23.4484 38.3173 0
rclavicle 7.60351e-15 1.91827e-14 0
rhumerus -37.5963 8.40387 -91.0372
rradius 79.0585 0 0
rwrist 6.02229 0 0
rhand -46.9135 -47.818 0
rfingers 7.12502 0 0
rthumb -19.6241 -796.847 0
